<svg version="1.1" id="Layer_1" xmlns="http://www.w3.org/2000/svg" xmlns:xlink="http://www.w3.org/1999/xlink" x="0px" y="0px"
	 width="100%" viewBox="0 0 1000 1000" enable-background="new 0 0 1000 1000" xml:space="preserve">
<path fill="#FFFFFF" opacity="1.000000" stroke="none" 
	d="
M464.000000,1001.000000 
	C309.333344,1001.000000 155.166672,1001.000000 1.000000,1001.000000 
	C1.000000,667.666687 1.000000,334.333344 1.000000,1.000000 
	C334.333344,1.000000 667.666687,1.000000 1001.000000,1.000000 
	C1001.000000,334.333344 1001.000000,667.666687 1001.000000,1001.000000 
	C822.166687,1001.000000 643.333313,1001.000000 464.000000,1001.000000 
M760.679321,283.402954 
	C748.324036,281.675598 735.950928,280.064148 723.621582,278.168091 
	C718.109253,277.320343 716.984314,274.323975 720.262268,269.896271 
	C736.513611,247.945129 752.752808,225.984512 769.129456,204.126999 
	C774.787537,196.575363 773.451233,190.598953 764.703613,186.941040 
	C762.581787,186.053772 760.262817,185.509628 757.980469,185.154541 
	C735.136658,181.600311 712.275879,178.154602 689.432678,174.596375 
	C681.790405,173.405960 675.488770,175.750595 670.958740,181.864197 
	C657.772888,199.659637 644.770630,217.591309 631.742493,235.503159 
	C628.530762,239.918823 627.190308,244.981674 629.089233,250.140930 
	C630.516479,254.018906 633.025208,257.498901 635.115601,261.269836 
	C634.759705,261.408813 634.311401,261.763824 633.916687,261.711884 
	C620.726135,259.975128 607.451233,258.688446 594.378662,256.297241 
	C580.239197,253.710968 570.305969,257.545898 561.553223,269.754303 
	C525.361206,320.235107 488.269409,370.070465 451.622162,420.226227 
	C448.915802,423.930145 446.813843,424.700928 442.669647,422.121521 
	C419.350281,407.607147 395.854187,393.376740 372.417389,379.051086 
	C359.491547,371.150269 346.667236,363.076324 333.604126,355.409363 
	C323.100189,349.244415 311.075409,355.891174 311.061554,367.619934 
	C311.054077,373.953857 313.899475,378.884247 319.297028,382.116760 
	C323.283417,384.504120 324.585083,387.503815 323.564392,392.135986 
	C322.386658,397.480957 321.946167,402.987305 321.157074,408.419434 
	C320.408386,413.573334 319.534698,414.028717 314.764709,411.434784 
	C309.355164,408.493103 304.120300,405.218262 298.639008,402.422485 
	C277.480499,391.630188 259.094940,409.511658 256.942413,425.673187 
	C255.258621,438.315521 262.203094,446.265594 272.304779,452.447632 
	C298.715881,468.610809 325.501953,484.223419 351.261108,501.373383 
	C380.062103,520.548523 417.542938,519.634277 444.163483,497.521393 
	C455.587402,488.031921 467.568451,486.590240 480.401215,495.014191 
	C486.988800,499.338593 493.921326,499.001434 500.673157,494.915527 
	C507.366974,490.864716 514.141052,486.944214 520.783081,482.810852 
	C527.552490,478.598175 534.131409,478.598022 540.952026,482.763123 
	C560.416260,494.649231 579.951599,506.418854 599.463501,518.226868 
	C607.187805,522.901428 608.297668,522.659973 613.645630,515.384399 
	C663.356812,447.754150 713.083130,380.135132 762.752380,312.474213 
	C765.101685,309.273987 767.385925,305.896332 768.953125,302.277649 
	C772.691467,293.645905 770.080200,287.622345 760.679321,283.402954 
M297.882111,772.387695 
	C316.372803,755.332458 334.862457,738.276062 353.354584,721.222351 
	C362.331116,712.944153 367.721283,702.733154 370.594910,690.888000 
	C372.885498,681.445923 371.633118,672.897705 366.057281,665.042786 
	C364.742340,663.190369 362.979401,661.481201 361.070618,660.253174 
	C347.105530,651.268677 333.185883,642.196655 318.922211,633.706055 
	C315.667786,631.768921 310.623901,630.412720 307.262909,631.484314 
	C289.220001,637.236694 276.258148,648.798096 270.992493,667.506958 
	C263.154541,695.355164 255.641937,723.294983 248.009659,751.200989 
	C241.605545,774.616394 235.164490,798.022217 228.962509,821.491150 
	C228.475571,823.333679 229.072571,826.501648 230.365143,827.498657 
	C231.809921,828.613037 234.681335,828.297852 236.819107,827.936890 
	C238.107834,827.719299 239.249908,826.304199 240.342194,825.301270 
	C259.362427,807.837524 278.364655,790.354248 297.882111,772.387695 
M382.446991,540.082214 
	C359.027344,525.734009 335.607697,511.385803 311.381378,496.543396 
	C310.905182,501.408264 310.802216,504.716919 310.212952,507.936646 
	C309.386414,512.453247 310.295502,516.290894 312.834015,520.185547 
	C318.465881,528.826172 323.541260,537.828796 329.148376,546.486511 
	C332.477844,551.627319 333.071259,556.724548 331.515778,562.604980 
	C327.265930,578.671936 323.426025,594.846863 319.277191,610.941223 
	C318.230164,615.002991 319.141113,617.940308 322.474731,620.543579 
	C338.676056,633.195679 356.054443,643.859436 374.745911,652.447266 
	C378.576416,654.207214 381.093475,653.532593 384.063232,650.803955 
	C396.447601,639.425110 409.106079,628.344482 421.480652,616.955139 
	C425.568665,613.192627 429.933167,611.341553 435.491211,612.020508 
	C441.103424,612.706177 446.742279,613.362793 452.385986,613.560303 
	C462.440796,613.912048 472.741943,617.603149 482.220276,610.314270 
	C486.936188,606.687744 487.460297,604.588074 482.186188,601.345276 
	C449.155884,581.036072 416.101593,560.765991 382.446991,540.082214 
z"/>
<path fill="#7159C1" opacity="1.000000" stroke="none" 
	d="
M761.053711,283.550476 
	C770.080200,287.622345 772.691467,293.645905 768.953125,302.277649 
	C767.385925,305.896332 765.101685,309.273987 762.752380,312.474213 
	C713.083130,380.135132 663.356812,447.754150 613.645630,515.384399 
	C608.297668,522.659973 607.187805,522.901428 599.463501,518.226868 
	C579.951599,506.418854 560.416260,494.649231 540.952026,482.763123 
	C534.131409,478.598022 527.552490,478.598175 520.783081,482.810852 
	C514.141052,486.944214 507.366974,490.864716 500.673157,494.915527 
	C493.921326,499.001434 486.988800,499.338593 480.401215,495.014191 
	C467.568451,486.590240 455.587402,488.031921 444.163483,497.521393 
	C417.542938,519.634277 380.062103,520.548523 351.261108,501.373383 
	C325.501953,484.223419 298.715881,468.610809 272.304779,452.447632 
	C262.203094,446.265594 255.258621,438.315521 256.942413,425.673187 
	C259.094940,409.511658 277.480499,391.630188 298.639008,402.422485 
	C304.120300,405.218262 309.355164,408.493103 314.764709,411.434784 
	C319.534698,414.028717 320.408386,413.573334 321.157074,408.419434 
	C321.946167,402.987305 322.386658,397.480957 323.564392,392.135986 
	C324.585083,387.503815 323.283417,384.504120 319.297028,382.116760 
	C313.899475,378.884247 311.054077,373.953857 311.061554,367.619934 
	C311.075409,355.891174 323.100189,349.244415 333.604126,355.409363 
	C346.667236,363.076324 359.491547,371.150269 372.417389,379.051086 
	C395.854187,393.376740 419.350281,407.607147 442.669647,422.121521 
	C446.813843,424.700928 448.915802,423.930145 451.622162,420.226227 
	C488.269409,370.070465 525.361206,320.235107 561.553223,269.754303 
	C570.305969,257.545898 580.239197,253.710968 594.378662,256.297241 
	C607.451233,258.688446 620.726135,259.975128 633.916687,261.711884 
	C634.311401,261.763824 634.759705,261.408813 635.115601,261.269836 
	C633.025208,257.498901 630.516479,254.018906 629.089233,250.140930 
	C627.190308,244.981674 628.530762,239.918823 631.742493,235.503159 
	C644.770630,217.591309 657.772888,199.659637 670.958740,181.864197 
	C675.488770,175.750595 681.790405,173.405960 689.432678,174.596375 
	C712.275879,178.154602 735.136658,181.600311 757.980469,185.154541 
	C760.262817,185.509628 762.581787,186.053772 764.703613,186.941040 
	C773.451233,190.598953 774.787537,196.575363 769.129456,204.126999 
	C752.752808,225.984512 736.513611,247.945129 720.262268,269.896271 
	C716.984314,274.323975 718.109253,277.320343 723.621582,278.168091 
	C735.950928,280.064148 748.324036,281.675598 761.053711,283.550476 
z"/>
<path fill="#725AC1" opacity="1.000000" stroke="none" 
	d="
M297.626465,772.631470 
	C278.364655,790.354248 259.362427,807.837524 240.342194,825.301270 
	C239.249908,826.304199 238.107834,827.719299 236.819107,827.936890 
	C234.681335,828.297852 231.809921,828.613037 230.365143,827.498657 
	C229.072571,826.501648 228.475571,823.333679 228.962509,821.491150 
	C235.164490,798.022217 241.605545,774.616394 248.009659,751.200989 
	C255.641937,723.294983 263.154541,695.355164 270.992493,667.506958 
	C276.258148,648.798096 289.220001,637.236694 307.262909,631.484314 
	C310.623901,630.412720 315.667786,631.768921 318.922211,633.706055 
	C333.185883,642.196655 347.105530,651.268677 361.070618,660.253174 
	C362.979401,661.481201 364.742340,663.190369 366.057281,665.042786 
	C371.633118,672.897705 372.885498,681.445923 370.594910,690.888000 
	C367.721283,702.733154 362.331116,712.944153 353.354584,721.222351 
	C334.862457,738.276062 316.372803,755.332458 297.626465,772.631470 
z"/>
<path fill="#725AC1" opacity="1.000000" stroke="none" 
	d="
M382.751099,540.282593 
	C416.101593,560.765991 449.155884,581.036072 482.186188,601.345276 
	C487.460297,604.588074 486.936188,606.687744 482.220276,610.314270 
	C472.741943,617.603149 462.440796,613.912048 452.385986,613.560303 
	C446.742279,613.362793 441.103424,612.706177 435.491211,612.020508 
	C429.933167,611.341553 425.568665,613.192627 421.480652,616.955139 
	C409.106079,628.344482 396.447601,639.425110 384.063232,650.803955 
	C381.093475,653.532593 378.576416,654.207214 374.745911,652.447266 
	C356.054443,643.859436 338.676056,633.195679 322.474731,620.543579 
	C319.141113,617.940308 318.230164,615.002991 319.277191,610.941223 
	C323.426025,594.846863 327.265930,578.671936 331.515778,562.604980 
	C333.071259,556.724548 332.477844,551.627319 329.148376,546.486511 
	C323.541260,537.828796 318.465881,528.826172 312.834015,520.185547 
	C310.295502,516.290894 309.386414,512.453247 310.212952,507.936646 
	C310.802216,504.716919 310.905182,501.408264 311.381378,496.543396 
	C335.607697,511.385803 359.027344,525.734009 382.751099,540.282593 
z"/>
</svg>